# xmcd
#
# Track frame offsets:
#	150
#	15830
#	31353
#	46986
#	61874
#	73494
#	88137
#	101655
#	114740
#	130420
#	146135
#	161868
#	176718
#	188366
#	203069
#	216604
#
# Disc length: 3059 seconds
#
# Revision: 1
# Processed by: cddbd v1.5.1PL2 Copyright (c) Steve Scherf et al.
# Submitted via: audiograbber 1.83.01
#
DISCID=f10bf110
DTITLE=Various Artist - ST103
DYEAR=1900
DGENRE=Country
TTITLE0=Brooks, Garth - American Hnkey-Tonk Bar Association (Vocal)
TTITLE1=Kershaw, Sammy - Queen Of My Double Wide Trailor (Vocal)
TTITLE2=Tritt, Travis - Can I Trust You With My Heart (Vocal)
TTITLE3=Brooks and Dunn - Hard Workin' Man (Vocal)
TTITLE4=Tritt, Travis - Here's A Quarter (Vocal)
TTITLE5=Starit, Gaorge - All My Ex's Live In Texas  (Vocal)
TTITLE6=Tritt, Travis - T-R-O-U-B-L-E (Vocal)
TTITLE7=Van Shelton, Ricky - I'll Leave This World Loving You (Vocal)
TTITLE8=Brooks, Garth - American Honkey-Tonk Bar Association
TTITLE9=Kershaw, Sammy - Queen Of My Double Wid Trailor
TTITLE10=Tritt, Travis - Can I Trust You With My Heart
TTITLE11=Brooks  and Dunn - Hard Workin' Man
TTITLE12=Tritt, Travis - Here's A Quarter
TTITLE13=Strait, George - All My Ex's Live In Texas
TTITLE14=Tritt, Travis - T-R-O-U-B-L-E
TTITLE15=Van Shelton, Ricky - I'll Leave This World Loving You
EXTD=
EXTT0=
EXTT1=
EXTT2=
EXTT3=
EXTT4=
EXTT5=
EXTT6=
EXTT7=
EXTT8=
EXTT9=
EXTT10=
EXTT11=
EXTT12=
EXTT13=
EXTT14=
EXTT15=
PLAYORDER=
